HIERARCHY
ROOT Hips
{
	OFFSET -0.001795 -0.223333 0.028219
	CHANNELS 6 Xposition Yposition Zposition Zrotation Yrotation Xrotation 
	JOINT LeftUpLeg
	{
		OFFSET 0.069520 -0.091406 -0.006815
		CHANNELS 3 Zrotation Yrotation Xrotation
		JOINT LeftLeg
		{
			OFFSET 0.034277 -0.375199 -0.004496
			CHANNELS 3 Zrotation Yrotation Xrotation
			JOINT LeftFoot
			{
				OFFSET -0.013596 -0.397961 -0.043693
				CHANNELS 3 Zrotation Yrotation Xrotation
				JOINT LeftToe
				{
					OFFSET 0.026358 -0.055791 0.119288
					CHANNELS 3 Zrotation Yrotation Xrotation
					End Site
					{
						OFFSET 0.000000 0.000000 0.000000
					}
				}
			}
		}
	}
	JOINT RightUpLeg
	{
		OFFSET -0.067670 -0.090522 -0.004320
		CHANNELS 3 Zrotation Yrotation Xrotation
		JOINT RightLeg
		{
			OFFSET -0.038290 -0.382569 -0.008850
			CHANNELS 3 Zrotation Yrotation Xrotation
			JOINT RightFoot
			{
				OFFSET 0.015774 -0.398415 -0.042312
				CHANNELS 3 Zrotation Yrotation Xrotation
				JOINT RightToe
				{
					OFFSET -0.025372 -0.048144 0.123348
					CHANNELS 3 Zrotation Yrotation Xrotation
					End Site
					{
						OFFSET 0.000000 0.000000 0.000000
					}
				}
			}
		}
	}
	JOINT Spine
	{
		OFFSET -0.002533 0.108963 -0.026696
		CHANNELS 3 Zrotation Yrotation Xrotation
		JOINT Spine1
		{
			OFFSET 0.005487 0.135180 0.001092
			CHANNELS 3 Zrotation Yrotation Xrotation
			JOINT Spine2
			{
				OFFSET 0.001457 0.052922 0.025425
				CHANNELS 3 Zrotation Yrotation Xrotation
				JOINT Neck
				{
					OFFSET -0.002778 0.213870 -0.042857
					CHANNELS 3 Zrotation Yrotation Xrotation
					JOINT Head
					{
						OFFSET 0.005152 0.064970 0.051349
						CHANNELS 3 Zrotation Yrotation Xrotation
						End Site
						{
							OFFSET 0.000000 0.000000 0.000000
						}
					}
				}
				JOINT LeftShoulder
				{
					OFFSET 0.078845 0.121749 -0.034090
					CHANNELS 3 Zrotation Yrotation Xrotation
					JOINT LeftArm
					{
						OFFSET 0.090977 0.030469 -0.008868
						CHANNELS 3 Zrotation Yrotation Xrotation
						JOINT LeftForeArm
						{
							OFFSET 0.259612 -0.012772 -0.027456
							CHANNELS 3 Zrotation Yrotation Xrotation
							JOINT LeftHand
							{
								OFFSET 0.249234 0.008986 -0.001171
								CHANNELS 3 Zrotation Yrotation Xrotation
								End Site
								{
									OFFSET 0.000000 0.000000 0.000000
								}
							}
						}
					}
				}
				JOINT RightShoulder
				{
					OFFSET -0.081759 0.118833 -0.038615
					CHANNELS 3 Zrotation Yrotation Xrotation
					JOINT RightArm
					{
						OFFSET -0.096012 0.032551 -0.009143
						CHANNELS 3 Zrotation Yrotation Xrotation
						JOINT RightForeArm
						{
							OFFSET -0.253742 -0.013329 -0.021401
							CHANNELS 3 Zrotation Yrotation Xrotation
							JOINT RightHand
							{
								OFFSET -0.255298 0.007772 -0.005559
								CHANNELS 3 Zrotation Yrotation Xrotation
								End Site
								{
									OFFSET 0.000000 0.000000 0.000000
								}
							}
						}
					}
				}
			}
		}
	}
}
MOTION
Frames: 7
Frame Time: 0.050000
0.000000 0.931688 0.000000 -2.114265 -6.973850 3.886518 2.649354 0.006361 0.435299 -0.428186 0.351326 -8.878907 -1.576539 -1.698536 4.048501 0.000000 0.000000 0.000000 1.389449 -0.197200 1.234281 1.927604 -0.255183 -3.985156 -1.647922 -4.270144 0.352104 0.000000 0.000000 0.000000 -0.689494 0.078128 -1.588370 -2.011270 1.069975 4.983959 1.395524 0.147345 3.955518 0.425708 0.701141 -19.031969 0.000000 0.000000 0.000000 -32.174106 -16.343207 9.831318 -38.257812 -7.694335 -2.626679 -10.284090 -63.444090 9.668923 0.000000 0.000000 0.000000 29.854091 19.269884 8.427664 47.627335 2.419783 -3.007369 -5.341906 66.804570 -1.822195 0.000000 0.000000 0.000000 
-0.000175 0.931352 0.000781 -1.963003 -6.925531 4.892692 3.337774 -0.038387 0.041213 -1.756704 0.452600 -10.331256 -2.685382 -3.271991 5.493640 0.000000 0.000000 0.000000 1.289145 -0.110148 0.410073 1.602935 -0.249616 -4.576929 -2.407834 -5.902792 -0.103698 0.000000 0.000000 0.000000 -1.048457 0.116781 -2.410136 -2.177612 1.174422 5.712667 2.018776 -0.278933 3.496362 0.159764 0.843600 -19.748004 0.000000 0.000000 0.000000 -31.511185 -16.356169 9.986009 -38.404994 -8.687933 -2.379752 -13.531687 -66.428460 12.548349 0.000000 0.000000 0.000000 28.907623 18.532798 7.633434 47.492713 1.423019 -3.280556 -1.876776 69.839761 0.246936 0.000000 0.000000 0.000000 
-0.000044 0.931144 0.001270 -1.871753 -7.053961 5.146373 4.156589 -0.060284 -0.173377 -2.233756 0.446934 -9.469265 -3.413885 -5.138280 4.527143 0.000000 0.000000 0.000000 1.557374 -0.071638 -0.088301 1.201339 -0.226056 -4.417209 -2.816512 -6.579719 -0.803768 0.000000 0.000000 0.000000 -0.287310 0.097490 -2.091903 -1.971294 1.029664 4.253343 1.251884 -0.464311 4.677310 0.002298 0.840940 -18.577009 0.000000 0.000000 0.000000 -31.453594 -16.574870 10.256286 -37.500654 -8.468404 -2.502343 -10.216252 -66.053539 10.308597 0.000000 0.000000 0.000000 30.820192 19.445651 8.385526 45.981017 1.277952 -3.252068 -8.399429 68.322884 -3.999659 0.000000 0.000000 0.000000 
-0.000063 0.931087 0.001698 -1.771368 -7.415858 5.339573 4.365477 -0.046658 0.095539 -2.690635 0.493674 -10.548957 -4.079263 -5.878382 5.752713 0.000000 0.000000 0.000000 1.382946 -0.058370 -0.157002 1.729650 -0.254844 -4.709121 -3.478617 -7.812200 -1.690264 0.000000 0.000000 0.000000 -0.267250 0.122854 -2.666164 -2.434724 1.314023 5.457486 2.013561 -0.752082 3.855147 -0.234045 0.895245 -18.012205 0.000000 0.000000 0.000000 -31.472841 -17.866899 11.424567 -37.173893 -8.207418 -2.563675 -8.215078 -66.060067 9.030659 0.000000 0.000000 0.000000 31.095476 20.674324 8.944122 45.657251 0.395053 -3.355636 -11.883924 69.116229 -6.647627 0.000000 0.000000 0.000000 
-0.000130 0.930920 0.002105 -1.469969 -7.778382 4.965465 3.653693 0.001137 0.637238 -2.034242 0.468805 -10.281052 -3.982134 -6.065315 5.019998 0.000000 0.000000 0.000000 1.016944 -0.095399 0.382119 1.509482 -0.250102 -5.055893 -3.028396 -6.690022 -1.618739 0.000000 0.000000 0.000000 0.341920 0.110979 -2.498331 -2.962191 1.616912 5.712165 1.948055 -0.783925 3.930671 -0.356449 0.864734 -16.176935 0.000000 0.000000 0.000000 -31.608101 -18.783338 12.195863 -36.401023 -7.379960 -2.775413 -6.278344 -66.439884 7.794578 0.000000 0.000000 0.000000 31.770299 21.159625 9.243686 44.736023 0.876757 -3.064872 -12.438297 67.642932 -6.836762 0.000000 0.000000 0.000000 
-0.000375 0.931002 0.002419 -1.232301 -7.766631 4.921266 3.128861 0.047980 1.213598 -1.564682 0.475546 -10.955593 -4.159755 -6.248450 5.359406 0.000000 0.000000 0.000000 0.575020 -0.101242 0.682838 1.675457 -0.263242 -5.393342 -3.166204 -7.091614 -1.496482 0.000000 0.000000 0.000000 0.250892 0.098498 -2.234613 -2.971465 1.631914 5.985527 2.396415 -0.874546 3.803697 -0.821871 1.145600 -16.675890 0.000000 0.000000 0.000000 -31.239725 -19.230640 12.516076 -36.255751 -7.933767 -2.619309 -6.461912 -65.208198 7.731380 0.000000 0.000000 0.000000 32.031339 22.007183 9.792526 44.301385 1.002009 -2.937051 -14.716489 65.792887 -8.064643 0.000000 0.000000 0.000000 
-0.000916 0.931044 0.002458 -1.014423 -7.604209 4.905338 2.912347 0.060236 1.338975 -1.311887 0.458260 -10.711940 -3.930641 -5.935080 5.064364 0.000000 0.000000 0.000000 0.509014 -0.071540 0.417750 1.537081 -0.258099 -5.357663 -3.081982 -6.847714 -1.591911 0.000000 0.000000 0.000000 0.373610 0.087428 -2.035638 -2.919100 1.602400 6.054277 2.486526 -1.089805 3.793326 -0.640685 1.004643 -16.222316 0.000000 0.000000 0.000000 -31.033155 -19.337049 12.625351 -35.628230 -7.610770 -2.685392 -6.465469 -64.458819 7.613372 0.000000 0.000000 0.000000 32.554952 22.283393 9.958298 43.525082 1.421023 -2.691175 -14.474405 63.937825 -7.619368 0.000000 0.000000 0.000000 
